<?xml version="1.0" encoding="UTF-8" standalone="no"?><svg xmlns="http://www.w3.org/2000/svg" xmlns:xlink="http://www.w3.org/1999/xlink" contentScriptType="application/ecmascript" contentStyleType="text/css" height="967px" preserveAspectRatio="none" style="width:1474px;height:967px;background:#FFFFFF;" version="1.1" viewBox="0 0 1474 967" width="1474px" zoomAndPan="magnify"><defs><filter height="300%" id="f1bu9b9fvxr0c8" width="300%" x="-1" y="-1"><feGaussianBlur result="blurOut" stdDeviation="2.0"/><feColorMatrix in="blurOut" result="blurOut2" type="matrix" values="0 0 0 0 0 0 0 0 0 0 0 0 0 0 0 0 0 0 .4 0"/><feOffset dx="4.0" dy="4.0" in="blurOut2" result="blurOut3"/><feBlend in="SourceGraphic" in2="blurOut3" mode="normal"/></filter></defs><g><!--MD5=[5ba97dfc93e0da7ae6875ba9fe947768]
cluster frontendApp--><rect fill="#FFFFFF" filter="url(#f1bu9b9fvxr0c8)" height="113" style="stroke:#000000;stroke-width:1.5;" width="174" x="475.5" y="7"/><text fill="#000000" font-family="sans-serif" font-size="14" font-style="italic" lengthAdjust="spacing" textLength="90" x="517.5" y="22.5352">«application»</text><text fill="#000000" font-family="sans-serif" font-size="14" font-weight="bold" lengthAdjust="spacing" textLength="128" x="498.5" y="39.0234">Frontend aplikace</text><!--MD5=[92e9c140242cecca48ef8c6e28b368e0]
cluster webApiApp--><rect fill="#FFFFFF" filter="url(#f1bu9b9fvxr0c8)" height="574" style="stroke:#000000;stroke-width:1.5;" width="1003" x="157.5" y="144"/><text fill="#000000" font-family="sans-serif" font-size="14" font-style="italic" lengthAdjust="spacing" textLength="90" x="614" y="159.5352">«application»</text><text fill="#000000" font-family="sans-serif" font-size="14" font-weight="bold" lengthAdjust="spacing" textLength="167" x="575.5" y="176.0234">Aplikace webového API</text><!--MD5=[0cb87e7b40043dd2e2ecdd5060cc7ec0]
cluster runtimeEnv--><rect fill="#FFFFFF" filter="url(#f1bu9b9fvxr0c8)" height="113" style="stroke:#000000;stroke-width:1.5;" width="278" x="1184.5" y="269"/><text fill="#000000" font-family="sans-serif" font-size="14" font-style="italic" lengthAdjust="spacing" textLength="90" x="1278.5" y="284.5352">«application»</text><text fill="#000000" font-family="sans-serif" font-size="14" font-weight="bold" lengthAdjust="spacing" textLength="229" x="1209" y="301.0234">Aplikace {environment} runtime</text><!--MD5=[e9cbb9dd88ded91326c7c57ecf0f8dfc]
cluster PostgreSQL--><rect fill="#FFFFFF" filter="url(#f1bu9b9fvxr0c8)" height="113" style="stroke:#000000;stroke-width:1.5;" width="136" x="264.5" y="842"/><text fill="#000000" font-family="sans-serif" font-size="14" font-style="italic" lengthAdjust="spacing" textLength="52" x="306.5" y="857.5352">«DBMS»</text><text fill="#000000" font-family="sans-serif" font-size="14" font-weight="bold" lengthAdjust="spacing" textLength="83" x="291" y="874.0234">PostgreSQL</text><!--MD5=[0de833582c25d4679d852108d405f6b3]
entity graphqlClient--><rect fill="#FEFECE" filter="url(#f1bu9b9fvxr0c8)" height="46.4883" style="stroke:#A80036;stroke-width:1.5;" width="142" x="491.5" y="58"/><rect fill="#FEFECE" height="10" style="stroke:#A80036;stroke-width:1.5;" width="15" x="613.5" y="63"/><rect fill="#FEFECE" height="2" style="stroke:#A80036;stroke-width:1.5;" width="4" x="611.5" y="65"/><rect fill="#FEFECE" height="2" style="stroke:#A80036;stroke-width:1.5;" width="4" x="611.5" y="69"/><text fill="#000000" font-family="sans-serif" font-size="14" lengthAdjust="spacing" textLength="102" x="506.5" y="91.5352">GraphQL klient</text><!--MD5=[85e163b7a63b23b00f6f1f465de18eb0]
entity graphqlServer--><rect fill="#FEFECE" filter="url(#f1bu9b9fvxr0c8)" height="46.4883" style="stroke:#A80036;stroke-width:1.5;" width="146" x="489.5" y="320"/><rect fill="#FEFECE" height="10" style="stroke:#A80036;stroke-width:1.5;" width="15" x="615.5" y="325"/><rect fill="#FEFECE" height="2" style="stroke:#A80036;stroke-width:1.5;" width="4" x="613.5" y="327"/><rect fill="#FEFECE" height="2" style="stroke:#A80036;stroke-width:1.5;" width="4" x="613.5" y="331"/><text fill="#000000" font-family="sans-serif" font-size="14" lengthAdjust="spacing" textLength="106" x="504.5" y="353.5352">GraphQL server</text><!--MD5=[32fe6ba112842f86d4ba43b0856a2543]
entity antiplagiarismService--><rect fill="#FEFECE" filter="url(#f1bu9b9fvxr0c8)" height="46.4883" style="stroke:#A80036;stroke-width:1.5;" width="202" x="585.5" y="538"/><rect fill="#FEFECE" height="10" style="stroke:#A80036;stroke-width:1.5;" width="15" x="767.5" y="543"/><rect fill="#FEFECE" height="2" style="stroke:#A80036;stroke-width:1.5;" width="4" x="765.5" y="545"/><rect fill="#FEFECE" height="2" style="stroke:#A80036;stroke-width:1.5;" width="4" x="765.5" y="549"/><text fill="#000000" font-family="sans-serif" font-size="14" lengthAdjust="spacing" textLength="162" x="600.5" y="571.5352">Antiplagiátorská služba</text><!--MD5=[964c0d3ad02cffe71d1434cdfe3710e1]
entity authService--><rect fill="#FEFECE" filter="url(#f1bu9b9fvxr0c8)" height="46.4883" style="stroke:#A80036;stroke-width:1.5;" width="122" x="173.5" y="426"/><rect fill="#FEFECE" height="10" style="stroke:#A80036;stroke-width:1.5;" width="15" x="275.5" y="431"/><rect fill="#FEFECE" height="2" style="stroke:#A80036;stroke-width:1.5;" width="4" x="273.5" y="433"/><rect fill="#FEFECE" height="2" style="stroke:#A80036;stroke-width:1.5;" width="4" x="273.5" y="437"/><text fill="#000000" font-family="sans-serif" font-size="14" lengthAdjust="spacing" textLength="82" x="188.5" y="459.5352">Auth služba</text><!--MD5=[8dce557c27a55e3fcbb7c673dbe0873f]
entity gradingSyncService--><rect fill="#FEFECE" filter="url(#f1bu9b9fvxr0c8)" height="46.4883" style="stroke:#A80036;stroke-width:1.5;" width="322" x="822.5" y="538"/><rect fill="#FEFECE" height="10" style="stroke:#A80036;stroke-width:1.5;" width="15" x="1124.5" y="543"/><rect fill="#FEFECE" height="2" style="stroke:#A80036;stroke-width:1.5;" width="4" x="1122.5" y="545"/><rect fill="#FEFECE" height="2" style="stroke:#A80036;stroke-width:1.5;" width="4" x="1122.5" y="549"/><text fill="#000000" font-family="sans-serif" font-size="14" lengthAdjust="spacing" textLength="282" x="837.5" y="571.5352">Služba synchronizace studijních výsledků</text><!--MD5=[22357f1902dafc45980e864b21d199c2]
entity assesmentRuntimeAndEvaluationService--><rect fill="#FEFECE" filter="url(#f1bu9b9fvxr0c8)" height="46.4883" style="stroke:#A80036;stroke-width:1.5;" width="320" x="688.5" y="426"/><rect fill="#FEFECE" height="10" style="stroke:#A80036;stroke-width:1.5;" width="15" x="988.5" y="431"/><rect fill="#FEFECE" height="2" style="stroke:#A80036;stroke-width:1.5;" width="4" x="986.5" y="433"/><rect fill="#FEFECE" height="2" style="stroke:#A80036;stroke-width:1.5;" width="4" x="986.5" y="437"/><text fill="#000000" font-family="sans-serif" font-size="14" lengthAdjust="spacing" textLength="280" x="703.5" y="459.5352">Služba spouštění a hodnocení běhů úloh</text><!--MD5=[d07e055a63d629ad1386a2aa78186446]
entity assessmentCreationService--><rect fill="#FEFECE" filter="url(#f1bu9b9fvxr0c8)" height="46.4883" style="stroke:#A80036;stroke-width:1.5;" width="266" x="284.5" y="538"/><rect fill="#FEFECE" height="10" style="stroke:#A80036;stroke-width:1.5;" width="15" x="530.5" y="543"/><rect fill="#FEFECE" height="2" style="stroke:#A80036;stroke-width:1.5;" width="4" x="528.5" y="545"/><rect fill="#FEFECE" height="2" style="stroke:#A80036;stroke-width:1.5;" width="4" x="528.5" y="549"/><text fill="#000000" font-family="sans-serif" font-size="14" lengthAdjust="spacing" textLength="226" x="299.5" y="571.5352">Služba vytváření a editace zadání</text><!--MD5=[21c76b3bb3fefc39ffcba9d93b385949]
entity uploadService--><rect fill="#FEFECE" filter="url(#f1bu9b9fvxr0c8)" height="46.4883" style="stroke:#A80036;stroke-width:1.5;" width="286" x="330.5" y="426"/><rect fill="#FEFECE" height="10" style="stroke:#A80036;stroke-width:1.5;" width="15" x="596.5" y="431"/><rect fill="#FEFECE" height="2" style="stroke:#A80036;stroke-width:1.5;" width="4" x="594.5" y="433"/><rect fill="#FEFECE" height="2" style="stroke:#A80036;stroke-width:1.5;" width="4" x="594.5" y="437"/><text fill="#000000" font-family="sans-serif" font-size="14" lengthAdjust="spacing" textLength="246" x="345.5" y="459.5352">Služba uploadu vypracovaných úloh</text><!--MD5=[98debdbd1e7fc65cc980069a5574c645]
entity ORM--><rect fill="#FEFECE" filter="url(#f1bu9b9fvxr0c8)" height="46.4883" style="stroke:#A80036;stroke-width:1.5;" width="72" x="296.5" y="656"/><rect fill="#FEFECE" height="10" style="stroke:#A80036;stroke-width:1.5;" width="15" x="348.5" y="661"/><rect fill="#FEFECE" height="2" style="stroke:#A80036;stroke-width:1.5;" width="4" x="346.5" y="663"/><rect fill="#FEFECE" height="2" style="stroke:#A80036;stroke-width:1.5;" width="4" x="346.5" y="667"/><text fill="#000000" font-family="sans-serif" font-size="14" lengthAdjust="spacing" textLength="32" x="311.5" y="689.5352">ORM</text><!--MD5=[f70377a6f75ab1c3d020bd5cd2f42dba]
entity graphqlInterface--><ellipse cx="562.5" cy="224" fill="#FEFECE" filter="url(#f1bu9b9fvxr0c8)" rx="8" ry="8" style="stroke:#A80036;stroke-width:1.5;"/><text fill="#000000" font-family="sans-serif" font-size="14" lengthAdjust="spacing" textLength="126" x="499.5" y="254.5352">GraphQL endpoint</text><!--MD5=[2f2d5d6ecdb0d01a334e5e5130fadd88]
entity runtimeService--><rect fill="#FEFECE" filter="url(#f1bu9b9fvxr0c8)" height="46.4883" style="stroke:#A80036;stroke-width:1.5;" width="246" x="1200.5" y="320"/><rect fill="#FEFECE" height="10" style="stroke:#A80036;stroke-width:1.5;" width="15" x="1426.5" y="325"/><rect fill="#FEFECE" height="2" style="stroke:#A80036;stroke-width:1.5;" width="4" x="1424.5" y="327"/><rect fill="#FEFECE" height="2" style="stroke:#A80036;stroke-width:1.5;" width="4" x="1424.5" y="331"/><text fill="#000000" font-family="sans-serif" font-size="14" lengthAdjust="spacing" textLength="206" x="1215.5" y="353.5352">Služba běhu zdrojového kódu</text><!--MD5=[f9ba5bf973e7832d2ce5ed59077b93f7]
entity DB--><rect fill="#FEFECE" filter="url(#f1bu9b9fvxr0c8)" height="46.4883" style="stroke:#A80036;stroke-width:1.5;" width="104" x="280.5" y="893"/><rect fill="#FEFECE" height="10" style="stroke:#A80036;stroke-width:1.5;" width="15" x="364.5" y="898"/><rect fill="#FEFECE" height="2" style="stroke:#A80036;stroke-width:1.5;" width="4" x="362.5" y="900"/><rect fill="#FEFECE" height="2" style="stroke:#A80036;stroke-width:1.5;" width="4" x="362.5" y="904"/><text fill="#000000" font-family="sans-serif" font-size="14" lengthAdjust="spacing" textLength="64" x="295.5" y="926.5352">Databáze</text><!--MD5=[2ab76fb706450712c91adb829edbbfcf]
entity turnitinAPI--><ellipse cx="1220.5" cy="679" fill="#FEFECE" filter="url(#f1bu9b9fvxr0c8)" rx="8" ry="8" style="stroke:#A80036;stroke-width:1.5;"/><text fill="#000000" font-family="sans-serif" font-size="14" lengthAdjust="spacing" textLength="72" x="1184.5" y="709.5352">TurItIn API</text><!--MD5=[98be41c17f76105a221754a7e6d3eca9]
entity studyISSSO--><ellipse cx="68.5" cy="561" fill="#FEFECE" filter="url(#f1bu9b9fvxr0c8)" rx="8" ry="8" style="stroke:#A80036;stroke-width:1.5;"/><text fill="#000000" font-family="sans-serif" font-size="14" lengthAdjust="spacing" textLength="125" x="6" y="591.5352">Studijní IS SSO API</text><!--MD5=[e0bc2a5e4f5aa14651eda1fc0b3fa2e3]
entity studyISAPI--><ellipse cx="1354.5" cy="679" fill="#FEFECE" filter="url(#f1bu9b9fvxr0c8)" rx="8" ry="8" style="stroke:#A80036;stroke-width:1.5;"/><text fill="#000000" font-family="sans-serif" font-size="14" lengthAdjust="spacing" textLength="94" x="1307.5" y="709.5352">Studijní IS API</text><!--MD5=[4d44f0f00f97307a9978883fb0287af6]
entity dbInterface--><ellipse cx="332.5" cy="797" fill="#FEFECE" filter="url(#f1bu9b9fvxr0c8)" rx="8" ry="8" style="stroke:#A80036;stroke-width:1.5;"/><text fill="#000000" font-family="sans-serif" font-size="14" lengthAdjust="spacing" textLength="81" x="292" y="827.5352">DB rozhraní</text><!--MD5=[37d9fdd5eaf0d708d79b0c83da263b33]
link graphqlClient to graphqlInterface--><path d="M562.5,104.29 C562.5,104.29 562.5,204.86 562.5,204.86 " fill="none" id="graphqlClient-to-graphqlInterface" style="stroke:#A80036;stroke-width:1.0;"/><path d="M570.9572,211.7818 A9,9 0 0 0 554.0428 211.7818" style="stroke:#A80036;stroke-width:1.5;fill:none;"/><!--MD5=[0fbe12f4a72430e35bc57e9048868135]
link graphqlInterface to graphqlServer--><path d="M562.5,233.34 C562.5,233.34 562.5,314.56 562.5,314.56 " fill="none" id="graphqlInterface-to-graphqlServer" style="stroke:#A80036;stroke-width:1.0;stroke-dasharray:7.0,7.0;"/><polygon fill="#A80036" points="562.5,319.56,566.5,310.56,562.5,314.56,558.5,310.56,562.5,319.56" style="stroke:#A80036;stroke-width:1.0;"/><!--MD5=[d90d2bf15cd081a7db54cfb32db4051e]
link graphqlServer to assessmentCreationService--><path d="M489.33,351 C415.71,351 313,351 313,351 C313,351 313,532.72 313,532.72 " fill="none" id="graphqlServer-to-assessmentCreationService" style="stroke:#A80036;stroke-width:1.0;stroke-dasharray:7.0,7.0;"/><polygon fill="#A80036" points="313,537.72,317,528.72,313,532.72,309,528.72,313,537.72" style="stroke:#A80036;stroke-width:1.0;"/><!--MD5=[007b690867d56ce0e382be30b8d990e6]
link graphqlServer to assesmentRuntimeAndEvaluationService--><path d="M626,366 C626,397.18 626,449 626,449 C626,449 683.27,449 683.27,449 " fill="none" id="graphqlServer-to-assesmentRuntimeAndEvaluationService" style="stroke:#A80036;stroke-width:1.0;stroke-dasharray:7.0,7.0;"/><polygon fill="#A80036" points="688.27,449,679.27,445,683.27,449,679.27,453,688.27,449" style="stroke:#A80036;stroke-width:1.0;"/><!--MD5=[8e5f7942ea59c4942df7f56cd8b450cf]
link graphqlServer to authService--><path d="M489.3,336 C392.63,336 234.5,336 234.5,336 C234.5,336 234.5,420.86 234.5,420.86 " fill="none" id="graphqlServer-to-authService" style="stroke:#A80036;stroke-width:1.0;stroke-dasharray:7.0,7.0;"/><polygon fill="#A80036" points="234.5,425.86,238.5,416.86,234.5,420.86,230.5,416.86,234.5,425.86" style="stroke:#A80036;stroke-width:1.0;"/><!--MD5=[156e6b911acd2204154eaacc30923df1]
link graphqlServer to uploadService--><path d="M553,366 C553,366 553,420.68 553,420.68 " fill="none" id="graphqlServer-to-uploadService" style="stroke:#A80036;stroke-width:1.0;stroke-dasharray:7.0,7.0;"/><polygon fill="#A80036" points="553,425.68,557,416.68,553,420.68,549,416.68,553,425.68" style="stroke:#A80036;stroke-width:1.0;"/><!--MD5=[4a61994cfa60b687ff7204bd8d1a0fe9]
link assesmentRuntimeAndEvaluationService to gradingSyncService--><path d="M915.5,472.21 C915.5,491.43 915.5,518.61 915.5,537.82 " fill="none" id="assesmentRuntimeAndEvaluationService-gradingSyncService" style="stroke:#A80036;stroke-width:1.0;"/><path d="M922.5711,497.9477 A10,10 0 0 0 908.4289 497.9477" style="stroke:#A80036;stroke-width:1.5;fill:none;"/><ellipse cx="915.5" cy="505.0187" fill="#FFFFFF" rx="6" ry="6" style="stroke:#A80036;stroke-width:1.5;"/><!--MD5=[c800f91102a9710430056fe2de854441]
link assesmentRuntimeAndEvaluationService to antiplagiarismService--><path d="M738,472.21 C738,491.43 738,518.61 738,537.82 " fill="none" id="assesmentRuntimeAndEvaluationService-antiplagiarismService" style="stroke:#A80036;stroke-width:1.0;"/><path d="M745.0711,497.9477 A10,10 0 0 0 730.9289 497.9477" style="stroke:#A80036;stroke-width:1.5;fill:none;"/><ellipse cx="738" cy="505.0187" fill="#FFFFFF" rx="6" ry="6" style="stroke:#A80036;stroke-width:1.5;"/><!--MD5=[15cfdb150be021108e97fb1b3165ea9c]
link runtimeService to assesmentRuntimeAndEvaluationService--><path d="M1221.83,366 C1221.83,397.18 1221.83,449 1221.83,449 C1221.83,449 1109.98,449 1008.72,449 " fill="none" id="runtimeService-assesmentRuntimeAndEvaluationService" style="stroke:#A80036;stroke-width:1.0;"/><path d="M1146.1764,441.9289 A10,10 0 0 0 1146.1764 456.0711" style="stroke:#A80036;stroke-width:1.5;fill:none;"/><ellipse cx="1153.2475" cy="449" fill="#FFFFFF" rx="6" ry="6" style="stroke:#A80036;stroke-width:1.5;"/><!--MD5=[f9439462d85c49b98749f771dc3ca3a9]
link runtimeService to assessmentCreationService--><path d="M1243.17,366.12 C1243.17,410.22 1243.17,502 1243.17,502 C1243.17,502 440.5,502 440.5,502 C440.5,502 440.5,521.19 440.5,537.68 " fill="none" id="runtimeService-assessmentCreationService" style="stroke:#A80036;stroke-width:1.0;"/><path d="M834.7639,494.9289 A10,10 0 0 0 834.7639 509.0711" style="stroke:#A80036;stroke-width:1.5;fill:none;"/><ellipse cx="841.835" cy="502" fill="#FFFFFF" rx="6" ry="6" style="stroke:#A80036;stroke-width:1.5;"/><!--MD5=[b98ac0455033223fc477fb415251401c]
link antiplagiarismService to turnitinAPI--><path d="M720.17,584.12 C720.17,614.48 720.17,664 720.17,664 C720.17,664 1210.41,664 1210.41,664 " fill="none" id="antiplagiarismService-to-turnitinAPI" style="stroke:#A80036;stroke-width:1.0;"/><path d="M1217.3318,655.5428 A9,9 0 0 0 1217.3318 672.4572" style="stroke:#A80036;stroke-width:1.5;fill:none;"/><!--MD5=[1047f9a521d29ced092ab437afc7fdf3]
link authService to studyISSSO--><path d="M209.17,472.21 C209.17,505.01 209.17,561 209.17,561 C209.17,561 87.73,561 87.73,561 " fill="none" id="authService-to-studyISSSO" style="stroke:#A80036;stroke-width:1.0;"/><path d="M80.8082,569.4572 A9,9 0 0 0 80.8082 552.5428" style="stroke:#A80036;stroke-width:1.5;fill:none;"/><!--MD5=[0b9b18cfb343f5652a442f756f0929ff]
link gradingSyncService to studyISAPI--><path d="M1144.61,561 C1244.73,561 1354.5,561 1354.5,561 C1354.5,561 1354.5,659.74 1354.5,659.74 " fill="none" id="gradingSyncService-to-studyISAPI" style="stroke:#A80036;stroke-width:1.0;"/><path d="M1362.9572,666.6618 A9,9 0 0 0 1346.0428 666.6618" style="stroke:#A80036;stroke-width:1.5;fill:none;"/><!--MD5=[2bf59e39e8d478b692c8ae91b8acf9a4]
link assessmentCreationService to ORM--><path d="M332.5,584.03 C332.5,584.03 332.5,650.62 332.5,650.62 " fill="none" id="assessmentCreationService-to-ORM" style="stroke:#A80036;stroke-width:1.0;stroke-dasharray:7.0,7.0;"/><polygon fill="#A80036" points="332.5,655.62,336.5,646.62,332.5,650.62,328.5,646.62,332.5,655.62" style="stroke:#A80036;stroke-width:1.0;"/><!--MD5=[9046b02e8edeb6e0af9a300839f25861]
link assesmentRuntimeAndEvaluationService to ORM--><path d="M805,472.25 C805,532.14 805,687 805,687 C805,687 373.79,687 373.79,687 " fill="none" id="assesmentRuntimeAndEvaluationService-to-ORM" style="stroke:#A80036;stroke-width:1.0;stroke-dasharray:7.0,7.0;"/><polygon fill="#A80036" points="368.79,687,377.79,691,373.79,687,377.79,683,368.79,687" style="stroke:#A80036;stroke-width:1.0;"/><!--MD5=[e0669c5703e41ba64ad6664932d2a36d]
link uploadService to ORM--><path d="M568,472.02 C568,529 568,672 568,672 C568,672 373.52,672 373.52,672 " fill="none" id="uploadService-to-ORM" style="stroke:#A80036;stroke-width:1.0;stroke-dasharray:7.0,7.0;"/><polygon fill="#A80036" points="368.52,672,377.52,676,373.52,672,377.52,668,368.52,672" style="stroke:#A80036;stroke-width:1.0;"/><!--MD5=[15400ed87d8b469d4fa034dd78284aa5]
link gradingSyncService to ORM--><path d="M983.5,584.04 C983.5,622.35 983.5,695 983.5,695 C983.5,695 373.9,695 373.9,695 " fill="none" id="gradingSyncService-to-ORM" style="stroke:#A80036;stroke-width:1.0;stroke-dasharray:7.0,7.0;"/><polygon fill="#A80036" points="368.9,695,377.9,699,373.9,695,377.9,691,368.9,695" style="stroke:#A80036;stroke-width:1.0;"/><!--MD5=[abab53b5611140563764686923f6cd2a]
link antiplagiarismService to ORM--><path d="M652.83,584.03 C652.83,618.37 652.83,679 652.83,679 C652.83,679 373.62,679 373.62,679 " fill="none" id="antiplagiarismService-to-ORM" style="stroke:#A80036;stroke-width:1.0;stroke-dasharray:7.0,7.0;"/><polygon fill="#A80036" points="368.62,679,377.62,683,373.62,679,377.62,675,368.62,679" style="stroke:#A80036;stroke-width:1.0;"/><!--MD5=[41fe95b759598785d1aac63872c7860d]
link authService to ORM--><path d="M244.83,472.32 C244.83,530.79 244.83,679 244.83,679 C244.83,679 291.34,679 291.34,679 " fill="none" id="authService-to-ORM" style="stroke:#A80036;stroke-width:1.0;stroke-dasharray:7.0,7.0;"/><polygon fill="#A80036" points="296.34,679,287.34,675,291.34,679,287.34,683,296.34,679" style="stroke:#A80036;stroke-width:1.0;"/><!--MD5=[e17aa2c41e345d69f1b1708c7153489c]
link ORM to dbInterface--><path d="M332.5,702.03 C332.5,702.03 332.5,777.85 332.5,777.85 " fill="none" id="ORM-to-dbInterface" style="stroke:#A80036;stroke-width:1.0;"/><path d="M340.9572,784.7718 A9,9 0 0 0 324.0428 784.7718" style="stroke:#A80036;stroke-width:1.5;fill:none;"/><!--MD5=[401a5150b8fb334527fbdce59a78c4d8]
link dbInterface to DB--><path d="M332.5,806.34 C332.5,824.75 332.5,866.22 332.5,892.56 " fill="none" id="dbInterface-DB" style="stroke:#A80036;stroke-width:1.0;"/><!--MD5=[1dc1fdf7a92cb1b3ea8ecb1816f07eab]
@startuml
skinparam linetype ortho

rectangle "Frontend aplikace" <<application>> as frontendApp {
    component "GraphQL klient" as graphqlClient
}

rectangle "Aplikace webového API" <<application>> as webApiApp {
    component "GraphQL server" as graphqlServer
    component "Antiplagiátorská služba" as antiplagiarismService
    component "Auth služba" as authService
    component "Služba synchronizace studijních výsledků" as gradingSyncService
    component "Služba spouštění a hodnocení běhů úloh" as assesmentRuntimeAndEvaluationService
    component "Služba vytváření a editace zadání" as assessmentCreationService
    component "Služba uploadu vypracovaných úloh" as uploadService
    component "ORM" as ORM

    interface "GraphQL endpoint" as graphqlInterface
}

rectangle "Aplikace {environment} runtime" <<application>> as runtimeEnv {
    component "Služba běhu zdrojového kódu" as runtimeService
}

rectangle "PostgreSQL" <<DBMS>> {
    component "Databáze" as DB
}


interface "TurItIn API" as turnitinAPI
interface "Studijní IS SSO API" as studyISSSO
interface "Studijní IS API" as studyISAPI
interface "DB rozhraní" as dbInterface


graphqlClient - -( graphqlInterface
graphqlInterface ..> graphqlServer

graphqlServer ..> assessmentCreationService
graphqlServer ..> assesmentRuntimeAndEvaluationService
graphqlServer ..> authService
graphqlServer ..> uploadService

assesmentRuntimeAndEvaluationService -(0- gradingSyncService
assesmentRuntimeAndEvaluationService -(0- antiplagiarismService

assesmentRuntimeAndEvaluationService -u(0- runtimeService
assessmentCreationService -u(0- runtimeService


antiplagiarismService - -( turnitinAPI
authService - -( studyISSSO
gradingSyncService - -( studyISAPI

assessmentCreationService ..> ORM
assesmentRuntimeAndEvaluationService ..> ORM
uploadService ..> ORM
gradingSyncService ..> ORM
antiplagiarismService ..> ORM
authService ..> ORM


ORM - -( dbInterface
dbInterface - - DB


@enduml

PlantUML version 1.2021.16(Wed Dec 08 18:25:22 CET 2021)
(GPL source distribution)
Java Runtime: OpenJDK Runtime Environment
JVM: OpenJDK 64-Bit Server VM
Default Encoding: UTF-8
Language: cs
Country: CZ
--></g></svg>