<?xml version="1.0" encoding="UTF-8" standalone="no"?><svg xmlns="http://www.w3.org/2000/svg" xmlns:xlink="http://www.w3.org/1999/xlink" contentScriptType="application/ecmascript" contentStyleType="text/css" height="506px" preserveAspectRatio="none" style="width:633px;height:506px;background:#FFFFFF;" version="1.1" viewBox="0 0 633 506" width="633px" zoomAndPan="magnify"><defs><filter height="300%" id="f1siya87hylfpe" width="300%" x="-1" y="-1"><feGaussianBlur result="blurOut" stdDeviation="2.0"/><feColorMatrix in="blurOut" result="blurOut2" type="matrix" values="0 0 0 0 0 0 0 0 0 0 0 0 0 0 0 0 0 0 .4 0"/><feOffset dx="4.0" dy="4.0" in="blurOut2" result="blurOut3"/><feBlend in="SourceGraphic" in2="blurOut3" mode="normal"/></filter></defs><g><!--MD5=[1012bba1df196a32b4a72499c84f63a6]
cluster Systém hodnocení studentských programovacích úloh--><rect fill="#FFFFFF" filter="url(#f1siya87hylfpe)" height="487" style="stroke:#000000;stroke-width:1.5;" width="404" x="110" y="7"/><text fill="#000000" font-family="sans-serif" font-size="14" font-weight="bold" lengthAdjust="spacing" textLength="388" x="118" y="22.5352">Systém hodnocení studentských programovacích úloh</text><ellipse cx="311.5689" cy="380.2138" fill="#FEFECE" filter="url(#f1siya87hylfpe)" rx="96.5689" ry="21.7138" style="stroke:#A80036;stroke-width:1.5;"/><text fill="#000000" font-family="sans-serif" font-size="14" lengthAdjust="spacing" textLength="156" x="233.5689" y="383.5048">Vytvoření zadání úlohy</text><ellipse cx="311.4589" cy="456.7918" fill="#FEFECE" filter="url(#f1siya87hylfpe)" rx="89.4589" ry="20.2918" style="stroke:#A80036;stroke-width:1.5;"/><text fill="#000000" font-family="sans-serif" font-size="14" lengthAdjust="spacing" textLength="140" x="241.4589" y="460.0828">Úprava zadání úlohy</text><ellipse cx="311.5607" cy="76.1121" fill="#FEFECE" filter="url(#f1siya87hylfpe)" rx="158.5607" ry="34.1121" style="stroke:#A80036;stroke-width:1.5;"/><text fill="#000000" font-family="sans-serif" font-size="14" lengthAdjust="spacing" textLength="288" x="167.5607" y="79.4032">Nahrání a vyhodnocení vypracované úlohy</text><ellipse cx="311.4953" cy="165.9991" fill="#FEFECE" filter="url(#f1siya87hylfpe)" rx="92.9953" ry="20.9991" style="stroke:#A80036;stroke-width:1.5;"/><text fill="#000000" font-family="sans-serif" font-size="14" lengthAdjust="spacing" textLength="148" x="237.4953" y="169.2901">Kontrola plagiátorství</text><ellipse cx="311.706" cy="305.1412" fill="#FEFECE" filter="url(#f1siya87hylfpe)" rx="78.706" ry="18.1412" style="stroke:#A80036;stroke-width:1.5;"/><text fill="#000000" font-family="sans-serif" font-size="14" lengthAdjust="spacing" textLength="115" x="254.206" y="308.4322">Uložení výsledku</text><ellipse cx="311.3882" cy="236.7689" fill="#FEFECE" filter="url(#f1siya87hylfpe)" rx="59.3882" ry="14.7689" style="stroke:#A80036;stroke-width:1.5;"/><text fill="#000000" font-family="sans-serif" font-size="14" lengthAdjust="spacing" textLength="67" x="274.8882" y="240.7865">Přihlášení</text><!--MD5=[0bc547216396b1ae8e8279bf1212b736]
entity student--><ellipse cx="36" cy="126" fill="#FEFECE" filter="url(#f1siya87hylfpe)" rx="8" ry="8" style="stroke:#A80036;stroke-width:1.5;"/><path d="M36,134 L36,161 M23,142 L49,142 M36,161 L23,176 M36,161 L49,176 " fill="none" filter="url(#f1siya87hylfpe)" style="stroke:#A80036;stroke-width:1.5;"/><text fill="#000000" font-family="sans-serif" font-size="14" lengthAdjust="spacing" textLength="53" x="9.5" y="195.0352">Student</text><!--MD5=[32e0ba0889f61f4bb2ccddaf56382b36]
entity vyucujici--><ellipse cx="36" cy="349" fill="#FEFECE" filter="url(#f1siya87hylfpe)" rx="8" ry="8" style="stroke:#A80036;stroke-width:1.5;"/><path d="M36,357 L36,384 M23,365 L49,365 M36,384 L23,399 M36,384 L49,399 " fill="none" filter="url(#f1siya87hylfpe)" style="stroke:#A80036;stroke-width:1.5;"/><text fill="#000000" font-family="sans-serif" font-size="14" lengthAdjust="spacing" textLength="60" x="6" y="418.0352">Vyučující</text><!--MD5=[6431b48a821a36bf855093905d22775b]
entity turnitin--><ellipse cx="592" cy="142.9883" fill="#FEFECE" filter="url(#f1siya87hylfpe)" rx="8" ry="8" style="stroke:#A80036;stroke-width:1.5;"/><path d="M592,150.9883 L592,177.9883 M579,158.9883 L605,158.9883 M592,177.9883 L579,192.9883 M592,177.9883 L605,192.9883 " fill="none" filter="url(#f1siya87hylfpe)" style="stroke:#A80036;stroke-width:1.5;"/><text fill="#000000" font-family="sans-serif" font-size="14" lengthAdjust="spacing" textLength="55" x="564.5" y="212.0234">TurnItIn</text><text fill="#000000" font-family="sans-serif" font-size="14" font-style="italic" lengthAdjust="spacing" textLength="62" x="561" y="130.5352">«System»</text><!--MD5=[f6a448e1c3a6d32669a37ba747ac72bc]
entity sis--><ellipse cx="592" cy="278.9883" fill="#FEFECE" filter="url(#f1siya87hylfpe)" rx="8" ry="8" style="stroke:#A80036;stroke-width:1.5;"/><path d="M592,286.9883 L592,313.9883 M579,294.9883 L605,294.9883 M592,313.9883 L579,328.9883 M592,313.9883 L605,328.9883 " fill="none" filter="url(#f1siya87hylfpe)" style="stroke:#A80036;stroke-width:1.5;"/><text fill="#000000" font-family="sans-serif" font-size="14" lengthAdjust="spacing" textLength="68" x="558" y="348.0234">Studijní IS</text><text fill="#000000" font-family="sans-serif" font-size="14" font-style="italic" lengthAdjust="spacing" textLength="62" x="561" y="266.5352">«System»</text><!--MD5=[e1bb836decd09c8ee2d0f08409639efc]
link student to login--><path d="M62.8,179.96 C74.1,188.83 87.97,198.21 102,204 C148.39,223.15 204.8,231.25 247.25,234.65 " fill="none" id="student-to-login" style="stroke:#A80036;stroke-width:1.0;"/><polygon fill="#A80036" points="252.36,235.04,243.682,230.3824,247.3738,234.6685,243.0877,238.3603,252.36,235.04" style="stroke:#A80036;stroke-width:1.0;"/><!--MD5=[56e3ab6f661836611d547cf1fd4622f2]
link student to nahrat_vyhodnotit_ulohu--><path d="M62.78,143.71 C74.52,138.02 88.74,131.63 102,127 C130.68,116.98 162.24,108.17 191.94,100.81 " fill="none" id="student-to-nahrat_vyhodnotit_ulohu" style="stroke:#A80036;stroke-width:1.0;"/><polygon fill="#A80036" points="197.08,99.55,187.3833,97.8254,192.2259,100.7492,189.3021,105.5919,197.08,99.55" style="stroke:#A80036;stroke-width:1.0;"/><!--MD5=[a7d4625eb9b77b4016f19a0cb52b89d5]
link vyucujici to login--><path d="M50.58,339.31 C60.85,315 77.43,285.69 102,269 C145.03,239.77 204.49,233.13 248.9,233 " fill="none" id="vyucujici-to-login" style="stroke:#A80036;stroke-width:1.0;"/><polygon fill="#A80036" points="253.97,233.02,244.9815,228.9943,248.97,233.0057,244.9586,236.9943,253.97,233.02" style="stroke:#A80036;stroke-width:1.0;"/><!--MD5=[a9ab5d509f62fa16ab8175ba5fd8853d]
link vyucujici to vytvoreni_ulohy--><path d="M66.01,380 C100.1,380 158.52,380 209.71,380 " fill="none" id="vyucujici-to-vytvoreni_ulohy" style="stroke:#A80036;stroke-width:1.0;"/><polygon fill="#A80036" points="214.96,380,205.96,376,209.96,380,205.96,384,214.96,380" style="stroke:#A80036;stroke-width:1.0;"/><!--MD5=[4a4f3385a120b1f8663504fcb8d08661]
link vyucujici to uprava_ulohy--><path d="M66.27,400.63 C77.07,407.39 89.69,414.36 102,419 C140.72,433.59 185.65,442.69 223.87,448.32 " fill="none" id="vyucujici-to-uprava_ulohy" style="stroke:#A80036;stroke-width:1.0;"/><polygon fill="#A80036" points="228.98,449.05,220.6446,443.8039,224.0314,448.3349,219.5004,451.7217,228.98,449.05" style="stroke:#A80036;stroke-width:1.0;"/><!--MD5=[0071a5e56d34bc23dd2817c8d6c2138f]
link login to sis--><path d="M374.17,241.61 C416.48,245.93 473.51,254.06 522,269 C532.36,272.19 543.13,276.7 552.99,281.37 " fill="none" id="login-sis" style="stroke:#A80036;stroke-width:1.0;"/><polygon fill="#A80036" points="557.76,283.67,551.412,276.1398,553.2625,281.4855,547.9168,283.3359,557.76,283.67" style="stroke:#A80036;stroke-width:1.0;"/><polygon fill="#A80036" points="369.08,241.1,377.6345,245.9806,374.0549,241.6003,378.4351,238.0207,369.08,241.1" style="stroke:#A80036;stroke-width:1.0;"/><!--MD5=[b59b6c5a703fda6c2cd791b35931b500]
link ulozeni_vysledku to sis--><path d="M390.08,304.16 C443.02,303.59 510.86,302.86 552.61,302.41 " fill="none" id="ulozeni_vysledku-to-sis" style="stroke:#A80036;stroke-width:1.0;"/><polygon fill="#A80036" points="557.82,302.36,548.7749,298.4631,552.8203,302.4171,548.8663,306.4626,557.82,302.36" style="stroke:#A80036;stroke-width:1.0;"/><!--MD5=[8d6f4b950297d49714bc6359bef9eb26]
link antiplag_kontrola to turnitin--><path d="M404.85,166 C456.46,166 517.81,166 555.57,166 " fill="none" id="antiplag_kontrola-to-turnitin" style="stroke:#A80036;stroke-width:1.0;"/><polygon fill="#A80036" points="560.97,166,551.97,162,555.97,166,551.97,170,560.97,166" style="stroke:#A80036;stroke-width:1.0;"/><!--MD5=[3b37feb60a8e3b2612ac2e412bb89ec6]
@startuml usecase
left to right direction

:Student: as student
:Vyučující: as vyucujici
:TurnItIn: << System >> as turnitin 
:Studijní IS: << System >> as sis

rectangle "Systém hodnocení studentských programovacích úloh" {
   (Vytvoření zadání úlohy) as vytvoreni_ulohy
   (Úprava zadání úlohy) as uprava_ulohy
   (Nahrání a vyhodnocení vypracované úlohy) as nahrat_vyhodnotit_ulohu
   (Kontrola plagiátorství) as antiplag_kontrola
   (Uložení výsledku) as ulozeni_vysledku
  (Přihlášení) as login
}

student - -> login
student - -> nahrat_vyhodnotit_ulohu

vyucujici - -> login
vyucujici - -> vytvoreni_ulohy
vyucujici - -> uprava_ulohy

login <- -> sis
ulozeni_vysledku - -> sis
antiplag_kontrola - -> turnitin
@enduml

PlantUML version 1.2021.16(Wed Dec 08 18:25:22 CET 2021)
(GPL source distribution)
Java Runtime: OpenJDK Runtime Environment
JVM: OpenJDK 64-Bit Server VM
Default Encoding: UTF-8
Language: cs
Country: CZ
--></g></svg>