<?xml version="1.0" encoding="UTF-8" standalone="no"?><svg xmlns="http://www.w3.org/2000/svg" xmlns:xlink="http://www.w3.org/1999/xlink" contentScriptType="application/ecmascript" contentStyleType="text/css" height="848px" preserveAspectRatio="none" style="width:2026px;height:848px;background:#FFFFFF;" version="1.1" viewBox="0 0 2026 848" width="2026px" zoomAndPan="magnify"><defs><filter height="300%" id="fxhjunzhf7yqo" width="300%" x="-1" y="-1"><feGaussianBlur result="blurOut" stdDeviation="2.0"/><feColorMatrix in="blurOut" result="blurOut2" type="matrix" values="0 0 0 0 0 0 0 0 0 0 0 0 0 0 0 0 0 0 .4 0"/><feOffset dx="4.0" dy="4.0" in="blurOut2" result="blurOut3"/><feBlend in="SourceGraphic" in2="blurOut3" mode="normal"/></filter></defs><g><!--MD5=[ee17a2e8276784b5620f01644bc3cf3c]
cluster gcp--><path d="M86.0604,74.5145 C121.2459,29.759 171.6899,30.4337 199.6686,82.9331 C223.8965,30.5578 270.4396,18.613 305.36,72.2757 C347.4044,20.0618 394.5033,10.9221 429.8375,79.2075 C466.8671,33.6273 504.6199,26.8482 535.8365,85.1396 C561.9526,22.5288 601.8721,26.153 645.2232,66.8989 C671.2203,23.4731 721.3244,15.4625 748.5813,65.5058 C786.5328,6 822.3506,16.7143 860.9819,64.7957 C900.7041,15.7376 943.8952,17.4945 975.8324,73.3204 C1013.1046,8.4234 1069.7143,25.8232 1099.4881,81.04 C1132.6219,29.8209 1164.7511,32.8253 1194.6963,84.0047 C1239.0815,32.8661 1279.245,30.152 1322.2739,85.6277 C1345.0771,25.1792 1397.8533,30.0253 1428.8711,77.5151 C1454.5607,24.9339 1496.0325,34.1669 1525.9937,72.9754 C1557.5731,19.5635 1615.6751,21.7536 1644.2889,76.2272 C1649.2614,74.9282 1651.057,77.5411 1650.2379,82.1045 C1699.7509,111.0192 1707.4929,151.6518 1661.9917,190.8373 C1701.1766,222.9124 1701.068,268.6099 1653.1265,293.1344 C1713.9996,327.8211 1724.8439,364.1036 1669.0189,414.1196 C1708.473,453.8654 1707.8824,494.2716 1653.0367,519.7494 C1704.6136,553.6801 1715.9355,586.139 1660.9755,627.8908 C1698.5231,663.2167 1682.4047,708.832 1637.2889,723.7272 C1639.5324,724.0348 1640.1866,725.6346 1639.2041,727.556 C1611.5955,775.2139 1569.7652,777.842 1535.1206,735.7122 C1503.4971,781.4192 1461.4356,776.0176 1434.0379,731.0037 C1399.9716,791.5562 1359.9566,780.4752 1320.8493,736.4602 C1281.5261,787.4815 1243.5183,794.7489 1199.4531,742.0082 C1164.4025,789.5266 1128.1614,781.003 1096.4933,738.1545 C1062.8758,808.4846 1020.7019,808.6966 975.1289,749.343 C936.1032,809.7219 896.7239,804.5106 858.122,748.9155 C823.9102,795.8276 793.2068,797.8438 761.3868,746.5592 C722.0472,792.6993 671.043,788.6677 641.849,734.4719 C617.515,797.3385 563.3649,808.8269 524.1654,748.6951 C490.031,793.1352 457.1486,793.9838 426.3564,745.189 C385.106,792.2282 347.3011,782.7378 320.0015,730.2771 C285.3365,782.8626 227.2124,799.6722 190.6769,732.2935 C152.5438,790.9136 93.5755,779.6433 71.2889,716.7272 C75.2854,712.4422 80.1109,711.9803 82.4423,718.4535 C34.223,691.5329 27.2296,651.2192 68.6185,612.5968 C25.1163,586.4014 16.276,538.2498 69.1692,512.5852 C24.6386,481.6304 31.8575,435.8886 76.4865,411.3801 C30.3363,379.526 14.5044,348.0716 66.5117,306.8508 C9.0267,276.5476 9.1697,223.5117 68.0259,194.7806 C6.4269,145.827 6,107.2365 78.2889,69.2272 C83.5015,66.8156 86.1549,69.1254 86.0604,74.5145 " fill="#FFFFFF" filter="url(#fxhjunzhf7yqo)" style="stroke:#000000;stroke-width:1.5;"/><text fill="#000000" font-family="sans-serif" font-size="14" font-style="italic" lengthAdjust="spacing" textLength="114" x="800.7889" y="87.7623">«cloud provider»</text><text fill="#000000" font-family="sans-serif" font-size="14" font-weight="bold" lengthAdjust="spacing" textLength="165" x="775.2889" y="104.2506">Google Cloud Platform</text><!--MD5=[4d1ba511a84040a302e44b1fb48921ec]
cluster cloudsql--><polygon fill="#FFFFFF" filter="url(#fxhjunzhf7yqo)" points="1170.2889,159.7272,1180.2889,149.7272,1620.2889,149.7272,1620.2889,400.7272,1610.2889,410.7272,1170.2889,410.7272,1170.2889,159.7272" style="stroke:#000000;stroke-width:1.5;"/><line style="stroke:#000000;stroke-width:1.5;" x1="1610.2889" x2="1620.2889" y1="159.7272" y2="149.7272"/><line style="stroke:#000000;stroke-width:1.5;" x1="1170.2889" x2="1610.2889" y1="159.7272" y2="159.7272"/><line style="stroke:#000000;stroke-width:1.5;" x1="1610.2889" x2="1610.2889" y1="159.7272" y2="410.7272"/><text fill="#000000" font-family="sans-serif" font-size="14" font-style="italic" lengthAdjust="spacing" textLength="147" x="1317.7889" y="176.2623">«DBaaS environment»</text><text fill="#000000" font-family="sans-serif" font-size="14" font-weight="bold" lengthAdjust="spacing" textLength="70" x="1356.2889" y="192.7506">CloudSQL</text><!--MD5=[72603f5dbbb55eb506dcc3e1b1012933]
cluster pgsql--><polygon fill="#FFFFFF" filter="url(#fxhjunzhf7yqo)" points="1210.2889,231.7272,1220.2889,221.7272,1588.2889,221.7272,1588.2889,368.7272,1578.2889,378.7272,1210.2889,378.7272,1210.2889,231.7272" style="stroke:#000000;stroke-width:1.5;"/><line style="stroke:#000000;stroke-width:1.5;" x1="1578.2889" x2="1588.2889" y1="231.7272" y2="221.7272"/><line style="stroke:#000000;stroke-width:1.5;" x1="1210.2889" x2="1578.2889" y1="231.7272" y2="231.7272"/><line style="stroke:#000000;stroke-width:1.5;" x1="1578.2889" x2="1578.2889" y1="231.7272" y2="378.7272"/><text fill="#000000" font-family="sans-serif" font-size="14" font-style="italic" lengthAdjust="spacing" textLength="52" x="1369.2889" y="248.2623">«DBMS»</text><text fill="#000000" font-family="sans-serif" font-size="14" font-weight="bold" lengthAdjust="spacing" textLength="83" x="1353.7889" y="264.7506">PostgreSQL</text><!--MD5=[0993e7ea549228962b170f5c7e8a4d0e]
cluster run--><polygon fill="#FFFFFF" filter="url(#fxhjunzhf7yqo)" points="95.2889,138.2272,105.2889,128.2272,1116.2889,128.2272,1116.2889,689.7272,1106.2889,699.7272,95.2889,699.7272,95.2889,138.2272" style="stroke:#000000;stroke-width:1.5;"/><line style="stroke:#000000;stroke-width:1.5;" x1="1106.2889" x2="1116.2889" y1="138.2272" y2="128.2272"/><line style="stroke:#000000;stroke-width:1.5;" x1="95.2889" x2="1106.2889" y1="138.2272" y2="138.2272"/><line style="stroke:#000000;stroke-width:1.5;" x1="1106.2889" x2="1106.2889" y1="138.2272" y2="699.7272"/><text fill="#000000" font-family="sans-serif" font-size="14" font-style="italic" lengthAdjust="spacing" textLength="173" x="515.2889" y="154.7623">«execution environment»</text><text fill="#000000" font-family="sans-serif" font-size="14" font-weight="bold" lengthAdjust="spacing" textLength="75" x="564.2889" y="171.2506">Cloud Run</text><!--MD5=[ec9b7644e0af796c9d0a7461b6f9788e]
cluster webApi--><polygon fill="#FFFFFF" filter="url(#fxhjunzhf7yqo)" points="855.2889,218.2272,865.2889,208.2272,1068.2889,208.2272,1068.2889,382.2272,1058.2889,392.2272,855.2889,392.2272,855.2889,218.2272" style="stroke:#000000;stroke-width:1.5;"/><line style="stroke:#000000;stroke-width:1.5;" x1="1058.2889" x2="1068.2889" y1="218.2272" y2="208.2272"/><line style="stroke:#000000;stroke-width:1.5;" x1="855.2889" x2="1058.2889" y1="218.2272" y2="218.2272"/><line style="stroke:#000000;stroke-width:1.5;" x1="1058.2889" x2="1058.2889" y1="218.2272" y2="392.2272"/><text fill="#000000" font-family="sans-serif" font-size="14" font-style="italic" lengthAdjust="spacing" textLength="130" x="892.7889" y="234.7623">«docker container»</text><text fill="#000000" font-family="sans-serif" font-size="14" font-weight="bold" lengthAdjust="spacing" textLength="131" x="892.2889" y="251.2506">Web API container</text><!--MD5=[8a807cf093962f06c39794e0105bcd48]
cluster nodeEnv--><polygon fill="#FFFFFF" filter="url(#fxhjunzhf7yqo)" points="135.2889,485.7272,145.2889,475.7272,428.2889,475.7272,428.2889,649.7272,418.2889,659.7272,135.2889,659.7272,135.2889,485.7272" style="stroke:#000000;stroke-width:1.5;"/><line style="stroke:#000000;stroke-width:1.5;" x1="418.2889" x2="428.2889" y1="485.7272" y2="475.7272"/><line style="stroke:#000000;stroke-width:1.5;" x1="135.2889" x2="418.2889" y1="485.7272" y2="485.7272"/><line style="stroke:#000000;stroke-width:1.5;" x1="418.2889" x2="418.2889" y1="485.7272" y2="659.7272"/><text fill="#000000" font-family="sans-serif" font-size="14" font-style="italic" lengthAdjust="spacing" textLength="130" x="212.7889" y="502.2623">«docker container»</text><text fill="#000000" font-family="sans-serif" font-size="14" font-weight="bold" lengthAdjust="spacing" textLength="217" x="169.2889" y="518.7506">Node.js runtime env container</text><!--MD5=[f4381ee810a44fa9cc25092d7ef8ecd3]
cluster pythonEnv--><polygon fill="#FFFFFF" filter="url(#fxhjunzhf7yqo)" points="468.2889,485.7272,478.2889,475.7272,758.2889,475.7272,758.2889,649.7272,748.2889,659.7272,468.2889,659.7272,468.2889,485.7272" style="stroke:#000000;stroke-width:1.5;"/><line style="stroke:#000000;stroke-width:1.5;" x1="748.2889" x2="758.2889" y1="485.7272" y2="475.7272"/><line style="stroke:#000000;stroke-width:1.5;" x1="468.2889" x2="748.2889" y1="485.7272" y2="485.7272"/><line style="stroke:#000000;stroke-width:1.5;" x1="748.2889" x2="748.2889" y1="485.7272" y2="659.7272"/><text fill="#000000" font-family="sans-serif" font-size="14" font-style="italic" lengthAdjust="spacing" textLength="130" x="544.2889" y="502.2623">«docker container»</text><text fill="#000000" font-family="sans-serif" font-size="14" font-weight="bold" lengthAdjust="spacing" textLength="214" x="502.2889" y="518.7506">Python runtime env container</text><!--MD5=[4361f5de21f93913150a72596115a1fe]
cluster javaEnv--><polygon fill="#FFFFFF" filter="url(#fxhjunzhf7yqo)" points="798.2889,485.7272,808.2889,475.7272,1068.2889,475.7272,1068.2889,649.7272,1058.2889,659.7272,798.2889,659.7272,798.2889,485.7272" style="stroke:#000000;stroke-width:1.5;"/><line style="stroke:#000000;stroke-width:1.5;" x1="1058.2889" x2="1068.2889" y1="485.7272" y2="475.7272"/><line style="stroke:#000000;stroke-width:1.5;" x1="798.2889" x2="1058.2889" y1="485.7272" y2="485.7272"/><line style="stroke:#000000;stroke-width:1.5;" x1="1058.2889" x2="1058.2889" y1="485.7272" y2="659.7272"/><text fill="#000000" font-family="sans-serif" font-size="14" font-style="italic" lengthAdjust="spacing" textLength="130" x="864.2889" y="502.2623">«docker container»</text><text fill="#000000" font-family="sans-serif" font-size="14" font-weight="bold" lengthAdjust="spacing" textLength="194" x="832.2889" y="518.7506">Java runtime env container</text><!--MD5=[eb274eeca2c6c2e64115e47ee34d1f4b]
cluster firebase--><polygon fill="#FFFFFF" filter="url(#fxhjunzhf7yqo)" points="1163.2889,485.7272,1173.2889,475.7272,1424.2889,475.7272,1424.2889,649.7272,1414.2889,659.7272,1163.2889,659.7272,1163.2889,485.7272" style="stroke:#000000;stroke-width:1.5;"/><line style="stroke:#000000;stroke-width:1.5;" x1="1414.2889" x2="1424.2889" y1="485.7272" y2="475.7272"/><line style="stroke:#000000;stroke-width:1.5;" x1="1163.2889" x2="1414.2889" y1="485.7272" y2="485.7272"/><line style="stroke:#000000;stroke-width:1.5;" x1="1414.2889" x2="1414.2889" y1="485.7272" y2="659.7272"/><text fill="#000000" font-family="sans-serif" font-size="14" font-style="italic" lengthAdjust="spacing" textLength="173" x="1203.2889" y="502.2623">«execution environment»</text><text fill="#000000" font-family="sans-serif" font-size="14" font-weight="bold" lengthAdjust="spacing" textLength="122" x="1228.7889" y="518.7506">Firebase Hosting</text><!--MD5=[766e3e42b2ee24b0c3044aad7a093fe5]
entity DB systému hodnocení studentských prog. úloh--><path d="M1226.7889,327.7272 C1226.7889,317.7272 1399.2889,317.7272 1399.2889,317.7272 C1399.2889,317.7272 1571.7889,317.7272 1571.7889,327.7272 L1571.7889,353.2154 C1571.7889,363.2154 1399.2889,363.2154 1399.2889,363.2154 C1399.2889,363.2154 1226.7889,363.2154 1226.7889,353.2154 L1226.7889,327.7272 " fill="#FEFECE" filter="url(#fxhjunzhf7yqo)" style="stroke:#000000;stroke-width:1.5;"/><path d="M1226.7889,327.7272 C1226.7889,337.7272 1399.2889,337.7272 1399.2889,337.7272 C1399.2889,337.7272 1571.7889,337.7272 1571.7889,327.7272 " fill="none" style="stroke:#000000;stroke-width:1.5;"/><text fill="#000000" font-family="sans-serif" font-size="14" lengthAdjust="spacing" textLength="325" x="1236.7889" y="355.2623">DB systému hodnocení studentských prog. úloh</text><!--MD5=[93049a40a5d4f92014095558e65ddb45]
entity Aplikace web API--><rect fill="#FEFECE" filter="url(#fxhjunzhf7yqo)" height="55.9766" style="stroke:#000000;stroke-width:1.5;" width="146" x="898.2889" y="312.2272"/><polygon fill="#FEFECE" points="1027.2889,317.2272,1027.2889,331.2272,1039.2889,331.2272,1039.2889,323.2272,1033.2889,317.2272,1027.2889,317.2272" style="stroke:#000000;stroke-width:1.5;"/><line style="stroke:#000000;stroke-width:1.5;" x1="1033.2889" x2="1033.2889" y1="317.2272" y2="323.2272"/><line style="stroke:#000000;stroke-width:1.5;" x1="1039.2889" x2="1033.2889" y1="323.2272" y2="323.2272"/><text fill="#000000" font-family="sans-serif" font-size="14" font-style="italic" lengthAdjust="spacing" textLength="90" x="921.2889" y="338.7623">«application»</text><text fill="#000000" font-family="sans-serif" font-size="14" lengthAdjust="spacing" textLength="116" x="908.2889" y="355.2506">Aplikace web API</text><!--MD5=[3bca6d4ee833d8939e64b78d4ba2fb30]
entity Aplikace node.js runtime--><rect fill="#FEFECE" filter="url(#fxhjunzhf7yqo)" height="55.9766" style="stroke:#000000;stroke-width:1.5;" width="200" x="204.2889" y="579.7272"/><polygon fill="#FEFECE" points="387.2889,584.7272,387.2889,598.7272,399.2889,598.7272,399.2889,590.7272,393.2889,584.7272,387.2889,584.7272" style="stroke:#000000;stroke-width:1.5;"/><line style="stroke:#000000;stroke-width:1.5;" x1="393.2889" x2="393.2889" y1="584.7272" y2="590.7272"/><line style="stroke:#000000;stroke-width:1.5;" x1="399.2889" x2="393.2889" y1="590.7272" y2="590.7272"/><text fill="#000000" font-family="sans-serif" font-size="14" font-style="italic" lengthAdjust="spacing" textLength="90" x="254.2889" y="606.2623">«application»</text><text fill="#000000" font-family="sans-serif" font-size="14" lengthAdjust="spacing" textLength="170" x="214.2889" y="622.7506">Aplikace node.js runtime</text><!--MD5=[83ba74431784c77a30d47553cb71602c]
entity Aplikace Python runtime--><rect fill="#FEFECE" filter="url(#fxhjunzhf7yqo)" height="55.9766" style="stroke:#000000;stroke-width:1.5;" width="197" x="536.7889" y="579.7272"/><polygon fill="#FEFECE" points="716.7889,584.7272,716.7889,598.7272,728.7889,598.7272,728.7889,590.7272,722.7889,584.7272,716.7889,584.7272" style="stroke:#000000;stroke-width:1.5;"/><line style="stroke:#000000;stroke-width:1.5;" x1="722.7889" x2="722.7889" y1="584.7272" y2="590.7272"/><line style="stroke:#000000;stroke-width:1.5;" x1="728.7889" x2="722.7889" y1="590.7272" y2="590.7272"/><text fill="#000000" font-family="sans-serif" font-size="14" font-style="italic" lengthAdjust="spacing" textLength="90" x="585.2889" y="606.2623">«application»</text><text fill="#000000" font-family="sans-serif" font-size="14" lengthAdjust="spacing" textLength="167" x="546.7889" y="622.7506">Aplikace Python runtime</text><!--MD5=[e9feae35d7c1c8d63d7b8c704d4bc6f9]
entity Aplikace Java runtime--><rect fill="#FEFECE" filter="url(#fxhjunzhf7yqo)" height="55.9766" style="stroke:#000000;stroke-width:1.5;" width="177" x="866.7889" y="579.7272"/><polygon fill="#FEFECE" points="1026.7889,584.7272,1026.7889,598.7272,1038.7889,598.7272,1038.7889,590.7272,1032.7889,584.7272,1026.7889,584.7272" style="stroke:#000000;stroke-width:1.5;"/><line style="stroke:#000000;stroke-width:1.5;" x1="1032.7889" x2="1032.7889" y1="584.7272" y2="590.7272"/><line style="stroke:#000000;stroke-width:1.5;" x1="1038.7889" x2="1032.7889" y1="590.7272" y2="590.7272"/><text fill="#000000" font-family="sans-serif" font-size="14" font-style="italic" lengthAdjust="spacing" textLength="90" x="905.2889" y="606.2623">«application»</text><text fill="#000000" font-family="sans-serif" font-size="14" lengthAdjust="spacing" textLength="147" x="876.7889" y="622.7506">Aplikace Java runtime</text><!--MD5=[7454f4bc5ccc8c0a9a35972f69e6282f]
entity Frontend React aplikace--><rect fill="#FEFECE" filter="url(#fxhjunzhf7yqo)" height="55.9766" style="stroke:#000000;stroke-width:1.5;" width="194" x="1206.2889" y="579.7272"/><polygon fill="#FEFECE" points="1383.2889,584.7272,1383.2889,598.7272,1395.2889,598.7272,1395.2889,590.7272,1389.2889,584.7272,1383.2889,584.7272" style="stroke:#000000;stroke-width:1.5;"/><line style="stroke:#000000;stroke-width:1.5;" x1="1389.2889" x2="1389.2889" y1="584.7272" y2="590.7272"/><line style="stroke:#000000;stroke-width:1.5;" x1="1395.2889" x2="1389.2889" y1="590.7272" y2="590.7272"/><text fill="#000000" font-family="sans-serif" font-size="14" font-style="italic" lengthAdjust="spacing" textLength="90" x="1253.2889" y="606.2623">«application»</text><text fill="#000000" font-family="sans-serif" font-size="14" lengthAdjust="spacing" textLength="164" x="1216.2889" y="622.7506">Frontend React aplikace</text><!--MD5=[25693f5fce22dcc913d6c34e355a10e2]
entity userDevice--><polygon fill="#FEFECE" filter="url(#fxhjunzhf7yqo)" points="1061.2889,804.7272,1071.2889,794.7272,1281.2889,794.7272,1281.2889,831.2154,1271.2889,841.2154,1061.2889,841.2154,1061.2889,804.7272" style="stroke:#000000;stroke-width:1.5;"/><line style="stroke:#000000;stroke-width:1.5;" x1="1271.2889" x2="1281.2889" y1="804.7272" y2="794.7272"/><line style="stroke:#000000;stroke-width:1.5;" x1="1061.2889" x2="1271.2889" y1="804.7272" y2="804.7272"/><line style="stroke:#000000;stroke-width:1.5;" x1="1271.2889" x2="1271.2889" y1="804.7272" y2="841.2154"/><text fill="#000000" font-family="sans-serif" font-size="14" lengthAdjust="spacing" textLength="180" x="1076.2889" y="828.2623">Zařízení uživatele aplikace</text><!--MD5=[d24d134f2ec25d80e3571a3e371f5071]
entity studyISServer--><polygon fill="#FEFECE" filter="url(#fxhjunzhf7yqo)" points="1668.7889,594.7272,1678.7889,584.7272,1831.7889,584.7272,1831.7889,621.2154,1821.7889,631.2154,1668.7889,631.2154,1668.7889,594.7272" style="stroke:#000000;stroke-width:1.5;"/><line style="stroke:#000000;stroke-width:1.5;" x1="1821.7889" x2="1831.7889" y1="594.7272" y2="584.7272"/><line style="stroke:#000000;stroke-width:1.5;" x1="1668.7889" x2="1821.7889" y1="594.7272" y2="594.7272"/><line style="stroke:#000000;stroke-width:1.5;" x1="1821.7889" x2="1821.7889" y1="594.7272" y2="631.2154"/><text fill="#000000" font-family="sans-serif" font-size="14" lengthAdjust="spacing" textLength="123" x="1683.7889" y="618.2623">Server studijího IS</text><!--MD5=[7a6d9b453700dbb03c360ecd8dcff0fa]
entity turnitinServer--><polygon fill="#FEFECE" filter="url(#fxhjunzhf7yqo)" points="1867.2889,594.7272,1877.2889,584.7272,2009.2889,584.7272,2009.2889,621.2154,1999.2889,631.2154,1867.2889,631.2154,1867.2889,594.7272" style="stroke:#000000;stroke-width:1.5;"/><line style="stroke:#000000;stroke-width:1.5;" x1="1999.2889" x2="2009.2889" y1="594.7272" y2="584.7272"/><line style="stroke:#000000;stroke-width:1.5;" x1="1867.2889" x2="1999.2889" y1="594.7272" y2="594.7272"/><line style="stroke:#000000;stroke-width:1.5;" x1="1999.2889" x2="1999.2889" y1="594.7272" y2="631.2154"/><text fill="#000000" font-family="sans-serif" font-size="14" lengthAdjust="spacing" textLength="102" x="1882.2889" y="618.2623">Server TurnItIn</text><!--MD5=[03f2f6c9584620d0b1f697e2abe55904]
link webApi to cloudsql--><path d="M874.3068,208.0107 C874.3779,207.1578 874.4488,206.3062 874.5197,205.4563 C874.6613,203.7564 874.8025,202.0629 874.9429,200.3774 C875.5048,193.6352 876.0561,187.0204 876.5883,180.6342 C877.6527,167.8617 878.6409,156.0034 879.4854,145.869 C881.1745,125.6003 882.2889,112.2272 882.2889,112.2272 C882.2889,112.2272 1124.2889,112.2272 1124.2889,112.2272 C1124.2889,112.2272 1136.9589,165.7197 1150.0251,220.8847 C1156.5582,248.4672 1163.1904,276.4678 1168.3875,298.409 C1169.0371,301.1517 1169.6643,303.7997 1170.2661,306.3403 " fill="none" id="webApi-cloudsql" style="stroke:#A80036;stroke-width:1.0;"/><text fill="#000000" font-family="sans-serif" font-size="13" lengthAdjust="spacing" textLength="36" x="1002.2889" y="41.7955">ODBC</text><!--MD5=[a893d5037e4e39ddc6baa53966be9402]
link webApi to nodeEnv--><path d="M854.8707,342.7033 C854.5484,342.7599 854.2173,342.818 853.8774,342.8777 C848.4398,343.8321 840.7691,345.1786 831.187,346.8606 C812.023,350.2247 785.2141,354.9311 753.3356,360.5275 C689.5786,371.7203 605.5432,386.4734 521.8326,401.1697 C354.4114,430.5622 188.2889,459.7272 188.2889,459.7272 C188.2889,459.7272 188.0012,461.9528 187.4967,465.8563 C187.2444,467.8081 186.9379,470.1793 186.5861,472.9016 C186.4981,473.5822 186.4073,474.2847 186.3138,475.008 C186.2904,475.1889 186.2669,475.371 186.2432,475.5545 " fill="none" id="webApi-nodeEnv" style="stroke:#A80036;stroke-width:1.0;"/><text fill="#000000" font-family="sans-serif" font-size="13" lengthAdjust="spacing" textLength="33" x="319.2889" y="448.2955">HTTP</text><!--MD5=[e2b250c4c8bae679a170888f0eb6936d]
link webApi to pythonEnv--><path d="M854.9287,344.1138 C854.4798,344.2689 854.0142,344.4297 853.532,344.5963 C851.6035,345.2625 849.4118,346.0196 846.9772,346.8606 C837.239,350.2247 823.6161,354.9311 807.417,360.5275 C775.0189,371.7203 732.3164,386.4734 689.7789,401.1697 C604.7039,430.5622 520.2889,459.7272 520.2889,459.7272 C520.2889,459.7272 520.0012,461.9528 519.4967,465.8563 C519.2444,467.8081 518.9379,470.1793 518.5861,472.9016 C518.4981,473.5822 518.4073,474.2847 518.3138,475.008 C518.2904,475.1889 518.2669,475.371 518.2432,475.5545 " fill="none" id="webApi-pythonEnv" style="stroke:#A80036;stroke-width:1.0;"/><text fill="#000000" font-family="sans-serif" font-size="13" lengthAdjust="spacing" textLength="33" x="587.2889" y="448.2955">HTTP</text><!--MD5=[4d285f86a4e6bc29d5a7a04484956dc9]
link webApi to javaEnv--><path d="M857.1351,392.2863 C857.0855,392.6987 857.0356,393.1128 856.9854,393.5286 C856.5846,396.8551 856.1707,400.2898 855.7456,403.8173 C854.8954,410.8722 854.0005,418.298 853.0758,425.9712 C851.2264,441.3175 849.2576,457.6531 847.2889,473.9884 C847.2273,474.4989 847.1658,475.0094 847.1043,475.5198 " fill="none" id="webApi-javaEnv" style="stroke:#A80036;stroke-width:1.0;"/><text fill="#000000" font-family="sans-serif" font-size="13" lengthAdjust="spacing" textLength="33" x="852.2889" y="448.2955">HTTP</text><!--MD5=[397bc91b0ca6fd8bcdad4af984c7dab4]
link firebase to userDevice--><path d="M1171.2889,660.1772 C1171.2889,660.4559 1171.2889,660.7352 1171.2889,661.0152 C1171.2889,661.5752 1171.2889,662.1379 1171.2889,662.7032 C1171.2889,664.9643 1171.2889,667.2669 1171.2889,669.6047 C1171.2889,674.2804 1171.2889,679.0975 1171.2889,684.0072 C1171.2889,723.2847 1171.2889,768.4922 1171.2889,794.7172 " fill="none" id="firebase-userDevice" style="stroke:#A80036;stroke-width:1.0;"/><text fill="#000000" font-family="sans-serif" font-size="13" lengthAdjust="spacing" textLength="33" x="1172.2889" y="761.2955">HTTP</text><!--MD5=[dc1a80161d9f6d737e865a169f7835bc]
link webApi to studyISServer--><path d="M874.6446,392.3278 C874.6805,392.4894 874.7164,392.6508 874.7522,392.812 C875.3255,395.3916 875.8888,397.9263 876.4332,400.3763 C877.5221,405.2763 878.5357,409.8375 879.4032,413.7414 C881.1382,421.549 882.2889,426.7272 882.2889,426.7272 C882.2889,426.7272 1056.2889,434.7272 1056.2889,434.7272 C1056.2889,434.7272 1416.2889,459.7272 1416.2889,459.7272 C1416.2889,459.7272 1607.1089,543.7072 1700.2889,584.7172 " fill="none" id="webApi-studyISServer" style="stroke:#A80036;stroke-width:1.0;"/><text fill="#000000" font-family="sans-serif" font-size="13" lengthAdjust="spacing" textLength="33" x="1300.2889" y="448.2955">HTTP</text><!--MD5=[2a462e28cf53bba3f83cfdd42536c319]
link webApi to turnitinServer--><path d="M874.6446,392.3278 C874.6805,392.4894 874.7164,392.6508 874.7522,392.812 C875.3255,395.3916 875.8888,397.9263 876.4332,400.3763 C877.5221,405.2763 878.5357,409.8375 879.4032,413.7414 C881.1382,421.549 882.2889,426.7272 882.2889,426.7272 C882.2889,426.7272 1342.2889,434.7272 1342.2889,434.7272 C1342.2889,434.7272 1849.2889,459.7272 1849.2889,459.7272 C1849.2889,459.7272 1900.1389,543.7072 1924.9689,584.7172 " fill="none" id="webApi-turnitinServer" style="stroke:#A80036;stroke-width:1.0;"/><text fill="#000000" font-family="sans-serif" font-size="13" lengthAdjust="spacing" textLength="33" x="1686.2889" y="448.2955">HTTP</text><!--MD5=[21e892565614db0e07e23973feebe5c3]
link webApi to firebase--><path d="M874.6446,392.3278 C874.6805,392.4894 874.7164,392.6508 874.7522,392.812 C875.3255,395.3916 875.8888,397.9263 876.4332,400.3763 C877.5221,405.2763 878.5357,409.8375 879.4032,413.7414 C881.1382,421.549 882.2889,426.7272 882.2889,426.7272 C882.2889,426.7272 1060.2889,459.7272 1060.2889,459.7272 C1060.2889,459.7272 1087.1789,495.3372 1114.4889,531.5034 C1128.1439,549.5865 1141.9039,567.8087 1152.4601,581.7883 C1155.0992,585.2831 1157.538,588.5129 1159.7249,591.4089 C1160.8183,592.857 1161.8488,594.2216 1162.8098,595.4943 C1162.93,595.6534 1163.049,595.811 1163.1669,595.9672 " fill="none" id="webApi-firebase" style="stroke:#A80036;stroke-width:1.0;"/><text fill="#000000" font-family="sans-serif" font-size="13" lengthAdjust="spacing" textLength="33" x="1014.2889" y="448.2955">HTTP</text><!--MD5=[17d9b49ed1f50d9aadb8df3ecc5421f1]
link cloudsql to firebase--><!--MD5=[7dfcd4f3d73352cc7e45b1f6b450784b]
link cloudsql to run--><!--MD5=[3fa60b09b2aa4980d49a9dca01f44935]
@startuml
skinparam linetype polyline

cloud "Google Cloud Platform" as gcp <<cloud provider>> {
    node "CloudSQL" as cloudsql <<DBaaS environment>> {
        node "PostgreSQL" as pgsql <<DBMS>> {
            database "DB systému hodnocení studentských prog. úloh"
        }
    }
    node "Cloud Run" as run <<execution environment>> {
        node "Web API container" as webApi <<docker container>> {
            artifact "Aplikace web API" <<application>>
        }
        node "Node.js runtime env container" as nodeEnv <<docker container>>{
            artifact "Aplikace node.js runtime" <<application>>
        }
        node "Python runtime env container" as pythonEnv <<docker container>>{
            artifact "Aplikace Python runtime" <<application>>
        }
        node "Java runtime env container" as javaEnv <<docker container>>{
            artifact "Aplikace Java runtime" <<application>>
        }

    }
    node "Firebase Hosting" as firebase <<execution environment>> {
        artifact "Frontend React aplikace" <<application>>
    }

}

node "Zařízení uživatele aplikace" as userDevice
node "Server studijího IS" as studyISServer
node "Server TurnItIn" as turnitinServer

webApi - - cloudsql : ODBC
webApi - - nodeEnv : HTTP
webApi - - pythonEnv : HTTP
webApi - - javaEnv : HTTP

firebase - - userDevice : HTTP
webApi - - studyISServer : HTTP
webApi - - turnitinServer : HTTP
webApi - - firebase : HTTP

cloudsql -[hidden]- firebase
cloudsql -[hidden]- run




@enduml

PlantUML version 1.2021.16(Wed Dec 08 18:25:22 CET 2021)
(GPL source distribution)
Java Runtime: OpenJDK Runtime Environment
JVM: OpenJDK 64-Bit Server VM
Default Encoding: UTF-8
Language: cs
Country: CZ
--></g></svg>